<svg width="352" height="202" viewBox="0 0 352 202" fill="none" xmlns="http://www.w3.org/2000/svg">
<path d="M24.7138 16H53.5L50.587 10.9018L49.3974 8.81994L48.2077 6.74245L45.2989 1.64423L42.3857 6.74245L41.1961 8.81994L40.6201 9.83114L39.5736 8L37.9174 5.09823L35.0042 0L32.0913 5.09823L30.4223 7.98299L29.3755 9.81413L28.7998 8.80292L27.6143 6.72544L24.7013 1.62722L21.7881 6.72544L20.5985 8.80292L19.4132 10.8848L16.5 15.983H24.7013L24.7138 16ZM44.1092 10.5193L45.2989 8.44186L46.4842 10.5193L47.6739 12.6012H42.9196L44.1092 10.5193ZM33.3648 9.6824L35.021 6.78062L36.7025 9.6824L38.3587 12.5842H31.6834L33.3648 9.6824ZM23.541 10.5023L24.7307 8.42485L25.916 10.5023L27.1056 12.5842H22.3557L23.541 10.5023Z" fill="#007DFF"/>
<path d="M65.3204 195H3.68324C1.92734 195 0.503906 196.475 0.503906 198.294V198.706C0.503906 200.525 1.92734 202 3.68324 202H65.3204C67.0763 202 68.4997 200.525 68.4997 198.706V198.294C68.4997 196.475 67.0763 195 65.3204 195Z" fill="#007DFF"/>
<path d="M65.3165 23H3.67933C1.92343 23 0.5 24.4748 0.5 26.2941V26.7059C0.5 28.5252 1.92343 30 3.67933 30H65.3165C67.0724 30 68.4958 28.5252 68.4958 26.7059V26.2941C68.4958 24.4748 67.0724 23 65.3165 23Z" fill="#007DFF"/>
<g clip-path="url(#clip0_296_28950)">
<path d="M22.0506 100.916C22.4589 100.916 22.8633 100.834 23.2406 100.676C23.6178 100.517 23.9605 100.284 24.2491 99.9913C24.5376 99.6982 24.7664 99.3503 24.9223 98.9675C25.0782 98.5847 25.1582 98.1746 25.1576 97.7604V40.1637C25.1565 39.3272 24.8284 38.5252 24.2452 37.9337C23.6619 37.3421 22.8712 37.0093 22.0465 37.0082H9.60206C9.49153 37.0082 9.38509 37.0082 9.28275 37.0082C8.51933 37.0953 7.81468 37.4658 7.30453 38.0484C6.79437 38.631 6.51477 39.3845 6.51959 40.1637V184.853C6.51959 185.69 6.8474 186.492 7.43085 187.084C8.0143 187.676 8.80563 188.008 9.63074 188.008H22.0751C22.9003 188.008 23.6916 187.676 24.275 187.084C24.8585 186.492 25.1863 185.69 25.1863 184.853V126.309C25.1868 125.895 25.1068 125.485 24.9509 125.102C24.795 124.719 24.5662 124.371 24.2776 124.078C23.9891 123.785 23.6465 123.553 23.2692 123.394C22.892 123.236 22.4876 123.154 22.0792 123.154V123.154C21.2541 123.154 20.4628 123.486 19.8794 124.078C19.2959 124.67 18.9681 125.473 18.9681 126.309V178.143C18.9681 178.98 18.6404 179.783 18.0569 180.374C17.4735 180.966 16.6822 181.299 15.857 181.299V181.299C15.4487 181.299 15.0443 181.217 14.667 181.058C14.2898 180.9 13.9471 180.667 13.6585 180.374C13.37 180.081 13.1413 179.733 12.9853 179.35C12.8294 178.967 12.7495 178.557 12.75 178.143V114.327H22.0751C22.9003 114.327 23.6916 113.994 24.275 113.403C24.8585 112.811 25.1863 112.008 25.1863 111.171V110.756C25.1852 109.92 24.8571 109.118 24.2738 108.526C23.6906 107.934 22.8999 107.602 22.0751 107.601H12.7418V46.8609C12.7418 46.0247 13.069 45.2227 13.6516 44.631C14.2341 44.0393 15.0244 43.7064 15.8488 43.7053V43.7053C16.674 43.7053 17.4653 44.0378 18.0487 44.6296C18.6322 45.2214 18.9599 46.024 18.9599 46.8609V97.7604C18.9599 98.5937 19.2849 99.393 19.864 99.9842C20.443 100.575 21.229 100.91 22.0506 100.916V100.916Z" fill="#007DFF"/>
<path d="M62.4996 184.446V40.1637C62.4996 39.7494 62.4191 39.3391 62.2628 38.9563C62.1064 38.5734 61.8773 38.2255 61.5884 37.9324C61.2995 37.6394 60.9566 37.407 60.5792 37.2484C60.2017 37.0898 59.797 37.0082 59.3885 37.0082C58.5633 37.0082 57.772 37.3407 57.1886 37.9324C56.6051 38.5242 56.2773 39.3268 56.2773 40.1637V178.147C56.2773 178.984 55.9497 179.787 55.3663 180.379C54.7828 180.97 53.9915 181.303 53.1664 181.303C52.3412 181.303 51.5499 180.97 50.9665 180.379C50.383 179.787 50.0552 178.984 50.0552 178.147V40.1637C50.0541 39.3272 49.726 38.5252 49.1428 37.9337C48.5595 37.3421 47.7688 37.0093 46.9441 37.0082V37.0082C46.1193 37.0093 45.3286 37.3421 44.7454 37.9337C44.1622 38.5252 43.834 39.3272 43.8329 40.1637V178.147C43.8329 178.984 43.5051 179.787 42.9217 180.379C42.3382 180.97 41.5469 181.303 40.7218 181.303C40.3132 181.303 39.9087 181.221 39.5313 181.063C39.1538 180.904 38.8108 180.672 38.5219 180.379C38.233 180.086 38.0038 179.738 37.8475 179.355C37.6911 178.972 37.6108 178.562 37.6108 178.147V40.3008C37.6237 39.4647 37.3173 38.6561 36.7557 38.0439C36.1942 37.4318 35.4209 37.0636 34.5978 37.0165C34.1817 37.0037 33.7674 37.0758 33.3793 37.2283C32.9912 37.3809 32.6372 37.611 32.3383 37.9049C32.0395 38.1987 31.8017 38.5505 31.6393 38.9392C31.4768 39.3279 31.393 39.7456 31.3926 40.1678V184.857C31.391 185.272 31.4703 185.683 31.6261 186.066C31.7818 186.45 32.0109 186.799 32.3002 187.092C32.5894 187.385 32.9331 187.618 33.3113 187.776C33.6895 187.934 34.0946 188.014 34.5037 188.012H59.3927C60.2178 188.012 61.0091 187.68 61.5926 187.088C62.176 186.496 62.5036 185.694 62.5036 184.857V184.462L62.4996 184.446Z" fill="#007DFF"/>
</g>
<path d="M126.86 96.2C132.78 96.2 137.9 95.04 142.22 92.72C146.62 90.32 150.26 86.8 153.14 82.16L145.34 77.24C143.34 80.6 140.9 83.12 138.02 84.8C135.14 86.4 131.82 87.2 128.06 87.2C124.3 87.2 121.1 86.4 118.46 84.8C115.82 83.2 113.82 80.88 112.46 77.84C111.1 74.8 110.42 71.12 110.42 66.8C110.5 62.56 111.22 59 112.58 56.12C114.02 53.16 116.02 50.92 118.58 49.4C121.22 47.8 124.38 47 128.06 47C131.18 47 133.9 47.68 136.22 49.04C138.54 50.4 140.34 52.28 141.62 54.68C142.98 57.08 143.66 59.92 143.66 63.2C143.66 63.76 143.54 64.48 143.3 65.36C143.06 66.16 142.82 66.76 142.58 67.16L146.42 61.64H106.82V69.8H153.98C153.98 69.64 153.98 69.28 153.98 68.72C154.06 68.08 154.1 67.48 154.1 66.92C154.1 61.08 153.06 56.04 150.98 51.8C148.9 47.56 145.9 44.32 141.98 42.08C138.14 39.76 133.5 38.6 128.06 38.6C122.62 38.6 117.82 39.8 113.66 42.2C109.58 44.6 106.38 47.96 104.06 52.28C101.82 56.6 100.7 61.64 100.7 67.4C100.7 73.08 101.78 78.08 103.94 82.4C106.18 86.72 109.26 90.12 113.18 92.6C117.18 95 121.74 96.2 126.86 96.2ZM208.658 1.4V95H218.258V1.4H208.658ZM162.458 67.4C162.458 73.32 163.698 78.44 166.178 82.76C168.658 87.08 171.978 90.4 176.138 92.72C180.298 95.04 184.858 96.2 189.818 96.2C194.458 96.2 198.498 95.04 201.938 92.72C205.378 90.4 208.058 87.08 209.978 82.76C211.978 78.44 212.978 73.32 212.978 67.4C212.978 61.4 211.978 56.28 209.978 52.04C208.058 47.72 205.378 44.4 201.938 42.08C198.498 39.76 194.458 38.6 189.818 38.6C184.858 38.6 180.298 39.76 176.138 42.08C171.978 44.4 168.658 47.72 166.178 52.04C163.698 56.28 162.458 61.4 162.458 67.4ZM172.178 67.4C172.178 63.16 173.018 59.56 174.698 56.6C176.458 53.64 178.778 51.4 181.658 49.88C184.538 48.36 187.658 47.6 191.018 47.6C193.818 47.6 196.578 48.36 199.298 49.88C202.018 51.4 204.258 53.64 206.018 56.6C207.778 59.56 208.658 63.16 208.658 67.4C208.658 71.64 207.778 75.24 206.018 78.2C204.258 81.16 202.018 83.4 199.298 84.92C196.578 86.44 193.818 87.2 191.018 87.2C187.658 87.2 184.538 86.44 181.658 84.92C178.778 83.4 176.458 81.16 174.698 78.2C173.018 75.24 172.178 71.64 172.178 67.4ZM257.055 96.2C262.975 96.2 268.095 95.04 272.415 92.72C276.815 90.32 280.455 86.8 283.335 82.16L275.535 77.24C273.535 80.6 271.095 83.12 268.215 84.8C265.335 86.4 262.015 87.2 258.255 87.2C254.495 87.2 251.295 86.4 248.655 84.8C246.015 83.2 244.015 80.88 242.655 77.84C241.295 74.8 240.615 71.12 240.615 66.8C240.695 62.56 241.415 59 242.775 56.12C244.215 53.16 246.215 50.92 248.775 49.4C251.415 47.8 254.575 47 258.255 47C261.375 47 264.095 47.68 266.415 49.04C268.735 50.4 270.535 52.28 271.815 54.68C273.175 57.08 273.855 59.92 273.855 63.2C273.855 63.76 273.735 64.48 273.495 65.36C273.255 66.16 273.015 66.76 272.775 67.16L276.615 61.64H237.015V69.8H284.175C284.175 69.64 284.175 69.28 284.175 68.72C284.255 68.08 284.295 67.48 284.295 66.92C284.295 61.08 283.255 56.04 281.175 51.8C279.095 47.56 276.095 44.32 272.175 42.08C268.335 39.76 263.695 38.6 258.255 38.6C252.815 38.6 248.015 39.8 243.855 42.2C239.775 44.6 236.575 47.96 234.255 52.28C232.015 56.6 230.895 61.64 230.895 67.4C230.895 73.08 231.975 78.08 234.135 82.4C236.375 86.72 239.455 90.12 243.375 92.6C247.375 95 251.935 96.2 257.055 96.2ZM332.853 61.4V95H342.453V60.2C342.453 53.56 340.733 48.32 337.293 44.48C333.933 40.56 329.333 38.6 323.493 38.6C319.893 38.6 316.693 39.4 313.893 41C311.173 42.6 308.893 45.08 307.053 48.44V39.8H297.453V95H307.053V61.4C307.053 58.68 307.613 56.28 308.733 54.2C309.933 52.12 311.573 50.52 313.653 49.4C315.813 48.2 318.293 47.6 321.093 47.6C324.933 47.6 327.853 48.76 329.853 51.08C331.853 53.4 332.853 56.84 332.853 61.4ZM97.1 135.8L121.1 195.2L136.82 155L153.5 195.2L177.5 135.8H166.7L152.78 171.92L136.7 131.6L121.7 171.68L107.9 135.8H97.1ZM187.063 113C187.063 114.76 187.703 116.32 188.983 117.68C190.343 118.96 191.903 119.6 193.663 119.6C195.503 119.6 197.063 118.96 198.343 117.68C199.623 116.32 200.263 114.76 200.263 113C200.263 111.16 199.623 109.6 198.343 108.32C197.063 107.04 195.503 106.4 193.663 106.4C191.903 106.4 190.343 107.04 188.983 108.32C187.703 109.6 187.063 111.16 187.063 113ZM188.863 135.8V191H198.463V135.8H188.863ZM220.514 174.08L212.954 178.76C213.994 180.92 215.514 183.04 217.514 185.12C219.594 187.2 222.114 188.92 225.074 190.28C228.034 191.56 231.354 192.2 235.034 192.2C240.714 192.2 245.274 190.6 248.714 187.4C252.234 184.2 253.994 180.2 253.994 175.4C253.994 172.12 253.194 169.44 251.594 167.36C250.074 165.28 247.994 163.52 245.354 162.08C242.714 160.56 239.794 159.16 236.594 157.88C234.674 157.08 232.834 156.24 231.074 155.36C229.314 154.48 227.874 153.48 226.754 152.36C225.634 151.24 225.074 149.96 225.074 148.52C225.074 146.68 225.794 145.32 227.234 144.44C228.674 143.56 230.394 143.12 232.394 143.12C235.274 143.12 237.834 143.8 240.074 145.16C242.394 146.52 244.314 148.24 245.834 150.32L253.514 145.4C252.394 143.32 250.834 141.48 248.834 139.88C246.834 138.28 244.514 137 241.874 136.04C239.314 135.08 236.554 134.6 233.594 134.6C230.634 134.6 227.754 135.12 224.954 136.16C222.234 137.2 219.994 138.8 218.234 140.96C216.554 143.12 215.714 145.84 215.714 149.12C215.714 152.32 216.514 155 218.114 157.16C219.794 159.24 221.834 160.96 224.234 162.32C226.714 163.6 229.154 164.72 231.554 165.68C233.714 166.48 235.754 167.36 237.674 168.32C239.594 169.2 241.154 170.32 242.354 171.68C243.634 172.96 244.274 174.56 244.274 176.48C244.274 178.64 243.474 180.36 241.874 181.64C240.354 182.84 238.234 183.44 235.514 183.44C233.274 183.44 231.194 183.04 229.274 182.24C227.434 181.36 225.794 180.2 224.354 178.76C222.914 177.32 221.634 175.76 220.514 174.08ZM287.993 192.2C293.913 192.2 299.033 191.04 303.353 188.72C307.753 186.32 311.393 182.8 314.273 178.16L306.473 173.24C304.473 176.6 302.033 179.12 299.153 180.8C296.273 182.4 292.953 183.2 289.193 183.2C285.433 183.2 282.233 182.4 279.593 180.8C276.953 179.2 274.953 176.88 273.593 173.84C272.233 170.8 271.553 167.12 271.553 162.8C271.633 158.56 272.353 155 273.713 152.12C275.153 149.16 277.153 146.92 279.713 145.4C282.353 143.8 285.513 143 289.193 143C292.313 143 295.033 143.68 297.353 145.04C299.673 146.4 301.473 148.28 302.753 150.68C304.113 153.08 304.793 155.92 304.793 159.2C304.793 159.76 304.673 160.48 304.433 161.36C304.193 162.16 303.953 162.76 303.713 163.16L307.553 157.64H267.953V165.8H315.113C315.113 165.64 315.113 165.28 315.113 164.72C315.193 164.08 315.233 163.48 315.233 162.92C315.233 157.08 314.193 152.04 312.113 147.8C310.033 143.56 307.033 140.32 303.113 138.08C299.273 135.76 294.633 134.6 289.193 134.6C283.753 134.6 278.953 135.8 274.793 138.2C270.713 140.6 267.513 143.96 265.193 148.28C262.953 152.6 261.833 157.64 261.833 163.4C261.833 169.08 262.913 174.08 265.073 178.4C267.313 182.72 270.393 186.12 274.313 188.6C278.313 191 282.873 192.2 287.993 192.2Z" fill="#0D0D0D"/>
<defs>
<clipPath id="clip0_296_28950">
<rect width="56" height="151" fill="white" transform="translate(6.5 37)"/>
</clipPath>
</defs>
</svg>
