<svg width="48" height="48" viewBox="0 0 48 48" fill="none" xmlns="http://www.w3.org/2000/svg">
<rect width="48" height="48" rx="10" fill="#FD71AF"/>
<path d="M19.2493 33.9282H16.2493C15.7188 33.9282 15.2101 33.7175 14.8351 33.3424C14.46 32.9674 14.2493 32.4587 14.2493 31.9282V24.9282C14.2493 24.3978 14.46 23.8891 14.8351 23.514C15.2101 23.1389 15.7188 22.9282 16.2493 22.9282H19.2493M26.2493 20.9282V16.9282C26.2493 16.1326 25.9332 15.3695 25.3706 14.8069C24.808 14.2443 24.0449 13.9282 23.2493 13.9282L19.2493 22.9282V33.9282H30.5293C31.0116 33.9337 31.4796 33.7646 31.8472 33.4522C32.2147 33.1398 32.4569 32.7051 32.5293 32.2282L33.9093 23.2282C33.9528 22.9416 33.9334 22.6489 33.8526 22.3705C33.7718 22.092 33.6314 21.8345 33.4411 21.6157C33.2509 21.397 33.0153 21.2222 32.7508 21.1034C32.4863 20.9847 32.1992 20.9249 31.9093 20.9282H26.2493Z" stroke="white" stroke-width="2" stroke-linecap="round" stroke-linejoin="round"/>
</svg>
