<svg width="36" height="36" viewBox="0 0 36 36" fill="none" xmlns="http://www.w3.org/2000/svg">
<path d="M30.461 23.8501C30.0594 24.2527 29.4103 24.2527 29.0087 23.8501L27.5563 22.3977C27.1537 21.9961 27.1537 21.346 27.5563 20.9454L30.461 18.0407C30.8626 17.6391 31.5118 17.6391 31.9134 18.0407L33.3658 19.493C33.7684 19.8946 33.7684 20.5448 33.3658 20.9454L30.461 23.8501ZM15.0541 8.44317C14.6525 8.8458 14.0034 8.8458 13.6017 8.44317L12.1494 6.99081C11.7468 6.5892 11.7468 5.94005 12.1494 5.53845L15.0541 2.63373C15.4557 2.23212 16.1049 2.23212 16.5065 2.63373L17.9588 4.08609C18.3615 4.48769 18.3615 5.13684 17.9588 5.53845L15.0541 8.44317Z" fill="#66757F"/>
<path d="M1.7018 21.9728C3.75606 21.9728 13.0002 22.9999 13.0002 22.9999C13.0002 22.9999 14.0273 32.2441 14.0273 34.2983C14.0273 36.3526 11.9731 36.3526 10.946 35.3255C9.91883 34.2983 6.83745 29.1627 6.83745 29.1627C6.83745 29.1627 1.7018 26.0813 0.674674 25.0542C-0.352455 24.027 -0.352455 21.9728 1.7018 21.9728ZM3.75606 5.57878C6.83745 5.53872 29.4343 6.56585 29.4343 6.56585C29.4343 6.56585 30.3833 29.1627 30.4224 32.2441C30.4614 35.3255 27.5844 36.3546 26.4556 32.2451C25.3268 28.1356 21.2173 14.7829 21.2173 14.7829C21.2173 14.7829 6.88367 10.2461 3.75092 9.54247C-0.352455 8.62011 0.673647 5.61781 3.75606 5.57878Z" fill="#55ACEE"/>
<path d="M27.3802 2.45721C29.4345 0.402948 34.5701 -0.624181 35.5973 0.402948C36.6244 1.43008 35.5973 6.56572 33.543 8.61998C31.4887 10.6742 14.0276 27.1083 14.0276 27.1083C14.0276 27.1083 7.35121 31.7304 5.81052 30.1897C4.26983 28.649 8.89191 21.9727 8.89191 21.9727C8.89191 21.9727 25.326 4.51146 27.3802 2.45721Z" fill="#CCD6DD"/>
<path d="M14.0268 21.9725C14.0268 21.9725 14.5403 22.486 9.91825 27.1081C5.29617 31.7302 4.7826 31.2166 4.7826 31.2166C4.7826 31.2166 4.26904 30.7031 8.89112 26.081C13.5132 21.4589 14.0268 21.9725 14.0268 21.9725ZM29.4337 3.48416C31.1356 3.48416 32.5151 4.86359 32.5151 6.56555H33.3419C33.459 6.242 33.5422 5.90305 33.5422 5.53842C33.5422 3.83647 32.1628 2.45703 30.4608 2.45703C30.0962 2.45703 29.7572 2.54023 29.4337 2.65732V3.48416Z" fill="#66757F"/>
</svg>
