<svg width="48" height="20" viewBox="0 0 48 20" fill="none" xmlns="http://www.w3.org/2000/svg">
<path d="M10.6558 20H48L44.221 13.6272L42.6777 11.0249L41.1344 8.42807L37.3607 2.05528L33.5815 8.42807L32.0382 11.0249L31.291 12.2889L29.9333 10L27.7847 6.37278L24.0055 0L20.2265 6.37278L18.0614 9.97874L16.7034 12.2677L15.9565 11.0037L14.4185 8.4068L10.6395 2.03402L6.8603 8.4068L5.31697 11.0037L3.77924 13.606L0 19.9787H10.6395L10.6558 20ZM35.8174 13.1492L37.3607 10.5523L38.8985 13.1492L40.4418 15.7515H34.2741L35.8174 13.1492ZM21.8787 12.103L24.0273 8.47578L26.2086 12.103L28.3572 15.7302H19.6974L21.8787 12.103ZM9.13429 13.1279L10.6776 10.5311L12.2153 13.1279L13.7587 15.7302H7.59655L9.13429 13.1279Z" fill="#007DFF"/>
</svg>
